<svg xmlns="http://www.w3.org/2000/svg" width="640" height="400" data-background-color="#003366">
  <path fill="#036" d="M0 0h640v400H0z" data-fill-palette-color="background"/>
  <g transform="translate(122.24 76.4)">
    <svg width="395.52" height="247.2" viewBox="0 0 395.52 247.2">
      <g>
        <svg/>
      </g>
      <g>
        <svg width="395.52" height="247.2" viewBox="0 0 395.52 247.2">
          <g>
            <path xmlns="http://www.w3.org/2000/svg" fill="#14283d" d="m55.039 247.2 26.403-45.732h2.008l-25.344 43.898h279.308l-25.344-43.898h2.008l26.403 45.732zM197.76 0l26.403 45.732h-2.008L197.76 3.478l-24.395 42.254h-2.008z" data-fill-palette-color="tertiary" font-family="none" font-size="none" font-weight="none" style="mix-blend-mode:normal" text-anchor="none"/>
          </g>
          <g transform="translate(36.668 67.98)">
            <svg width="322.184" height="111.24" viewBox="0 0 322.184 111.24">
              <g>
                <svg width="322.184" height="111.24" viewBox="0 0 395.52 136.56">
                  <g transform="translate(0 82.183)">
                    <svg width="395.52" height="54.378" viewBox="0 0 395.52 54.378">
                      <g>
                        <svg width="395.52" height="54.378" viewBox="0 0 395.52 54.378">
                          <g>
                            <svg width="395.52" height="36.157" viewBox="0 0 395.52 36.157">
                              <g>
                                <svg width="395.52" height="36.157" data-palette-color="#ffffff" viewBox="0.98 -37.55 427.8 39.11">
                                  <path fill="#fff" d="M37.3-13.09q-.41 3.67-1.92 6.49-1.52 2.82-3.89 4.59Q29.13-.24 26.11.66q-3.01.9-6.58.9-3.32 0-6.05-.72-2.74-.72-4.62-1.91-1.88-1.2-3.32-2.92T3.25-7.53q-.86-1.82-1.38-3.98-.53-2.16-.71-4.03-.18-1.87-.18-3.89v-2.15q.24-3.57 1.66-6.41 1.41-2.84 3.44-4.59 2.03-1.75 4.64-2.91 2.61-1.16 5.08-1.61 2.46-.45 4.9-.45 3.93 0 6.95.94 3.01.94 4.92 2.65 1.9 1.71 2.98 3.92 1.07 2.21 1.36 4.94v2.35q0 .78-5.37.78-1.27 0-3.52-.05-2.26-.05-2.97-.05-.12 0-.37.02-.24.03-.36.03-.64 0-.97-.53-.33-.52-.44-1.28-.11-.75-.27-1.51-.15-.76-.66-1.28-.5-.53-1.37-.53-.88 0-1.54.29-.66.3-1.05.92-.39.62-.65 1.26-.26.63-.37 1.65-.11 1.01-.14 1.7-.04.7-.06 1.86-.03 1.16-.05 1.7 0 .29-.05 1.07t-.05 1.27q0 6.08 3.22 6.25.88 0 1.44-.63.57-.64.77-1.42.21-.78.48-1.65.27-.87.58-1.18h13.29q.8.07.87.97Zm34.38-19.48v30.03q0 .51-.04.82-.04.3-.21.57-.17.27-.49.27H58.49v-.54q-.05-.04-.37-.22-.33-.17-.41-.31v-9.87q0-.53-.08-.61-.09-.07-.7-.07h-1.66q-.58 0-1.37.1v10.54q-.09.44-.37.57-.29.12-.85.12h-1.12q-1.15 0-3.6.05t-3.72.05h-3.23q-1.05 0-1.05-1.18l.15-30.76q0-.12.07-.21.08-.08.3-.24.22-.16.24-.18h13.13v10.5h4.25v-10.75h12.45q.59 0 .86.27t.27 1.05Zm4.58 4.64v.05q-.09-.49-.09-2.78 0-2.64.49-3.13h13.28v20.51q0 3.17 1.85 3.17.78 0 1.3-.69.51-.7.51-1.65v-3.61q.15-10.7.15-10.8 0-4.24-.1-6.15 0-.68.68-.97h13.58v3.8q-.32 9.26-.4 11.92v1.51q0 .29-.02.78-.02.49-.02.69 0 .83.04 1.17v1.9q0 3.4-.68 4.89v.09q-.78 1.83-2.25 3.17-1.46 1.33-3.34 2.07-1.88.74-3.86 1.07-1.97.33-4.17.33-.69 0-1.03-.14h-.58q0 .24-.74.24v.05q-.53.02-3.12-.24h-1.12q-1.54-.17-2.97-.69-1.43-.51-2.77-1.45t-2.36-2.23q-1.01-1.3-1.65-3.15-.63-1.86-.7-4.06.02-1.27.01-3.51-.01-2.25.01-4.09.03-1.84.12-3.58v-.68q0-.12.03-.39.02-.27.02-.39 0-.37-.05-1.1-.05-.73-.05-1.1v-.83Zm59.57-5.66h8.35q.29.09.45.84.16.74.19 1.87.02 1.12 0 2.14l-.06 2.1q-.04 1.08-.04 1.35-.05.97-.05 2.73v2.59q0 1.71.05 4.69.05 2.98.05 4.39V-2q-.1.83-1.37.83h-13.67q-.44-.1-1.12-2.05-.47-1.3-1.55-4.25-1.09-2.95-1.87-5.19-.78-2.23-1.42-4.33v-.15.15q-.07 1.61-.14 4.8-.08 3.18-.15 4.77v4.98q0 .73-.17 1.01t-.91.45h-10.05l-1.08-1.07q.12-4.05.2-12.7.07-8.64.19-12.79v-5.27q.25-.88.59-.88v.1q1.66 0 5.21-.1t5.34-.1h4.1q.02 0 .07.03.44.17.49.39l.02.17q.88 2.37 1.78 4.9.91 2.54 2.15 6.14 1.25 3.61 1.74 4.97v-3.61q.49-8.59.49-12.21 0-.39.53-.49.54-.09 1.66-.09ZM160.44-.88h-10.3q-.44-.73-.59-1.02v-32.08h10.79q.07 0 .39-.02.32-.01.49 0 .17.02.48.04.3.02.5.09.19.06.4.17.21.11.34.3.14.2.18.44v10.84q.81-1.61 2.26-4.64 1.46-3.03 2.14-4.39l1.2-2.57 2.31-.07q.49 0 1.48.05t1.45.05h1.86q.2 0 .57-.03.38-.02.55-.02h1.42q.1 0 .34-.05 3.96 0 3.96.59 0 .34-.44.92-1.13 1.79-3.79 6.51-2.66 4.73-4.29 7.12l9.54 16.45v.37q0 .05-.01.16t-.04.17q-.02.06-.06.15-.04.08-.1.14-.06.06-.13.14-2.3-.15-6.84-.15-.61 0-1.88.02-1.27.03-1.88.03h-3.32v-.69q-.39-.65-1.68-2.58-1.29-1.93-1.88-3.03l-2.74-5.23v10.84q-.34.98-2.68.98Zm75.19-12.21q-.42 3.67-1.93 6.49-1.51 2.82-3.88 4.59T224.44.66q-3.02.9-6.58.9-3.32 0-6.06-.72-2.73-.72-4.61-1.91-1.88-1.2-3.32-2.92t-2.3-3.54q-.85-1.82-1.38-3.98-.52-2.16-.71-4.03-.18-1.87-.18-3.89v-2.15q.25-3.57 1.66-6.41 1.42-2.84 3.44-4.59 2.03-1.75 4.64-2.91 2.61-1.16 5.08-1.61 2.47-.45 4.91-.45 3.93 0 6.94.94 3.02.94 4.92 2.65 1.91 1.71 2.98 3.92 1.08 2.21 1.37 4.94v2.35q0 .78-5.37.78-1.27 0-3.53-.05t-2.97-.05q-.12 0-.36.02-.25.03-.37.03-.63 0-.96-.53-.33-.52-.44-1.28-.11-.75-.27-1.51-.16-.76-.66-1.28-.5-.53-1.38-.53-.88 0-1.54.29-.66.3-1.05.92-.39.62-.64 1.26-.26.63-.37 1.65-.11 1.01-.15 1.7-.03.7-.06 1.86-.02 1.16-.05 1.7 0 .29-.05 1.07-.04.78-.04 1.27 0 6.08 3.22 6.25.88 0 1.44-.63.56-.64.77-1.42.2-.78.47-1.65.27-.87.59-1.18h13.28q.81.07.88.97ZM261.31-.98H238.9q-.07-.09-.23-.22-.16-.12-.36-.46v-10.55q0-2.07.17-6.37.17-4.3.17-6.52 0-.49-.09-2.07-.1-1.59-.1-2.52 0-3.44.83-4.2 5.08.1 7.57.1h2.34q.83 0 1.27.05.05-.05.24-.05.05 0 .43.05t.6.05q.61.07 1.03 1.02v.35q0 .26-.03.78-.02.51-.02.78v1.07q-.03.12-.31.43-.28.3-.28.5v17.82h10.35q.39 0 .59.03.19.02.39.22.19.19.19.58v8.16q-.19.97-2.34.97Zm4.54-.83v-29.73q0-1.47.12-1.71.22-.34.71-.34h.59q.39 0 .53.05h1.27q2.47 0 7.46-.13 4.99-.12 7.48-.12h6.5q.63.07.63.64V-25q-.02.15-.08.26-.06.11-.1.14-.04.04-.23.17-.2.14-.27.21h-11.33v3.03h1.07q1.42 0 4.33-.1 2.9-.1 4.46-.1.69 0 .93.27.25.27.25.76 0 .12-.05.41-.05.3-.05.42v.93q0 .09.02.4.03.3.03.52v.69q0 .53.05 1.07.04.54.04.93v.63q-.12.3-.19.4-.07.09-.25.09v-.05q-.9 0-3.11.13-2.21.12-3.53.12h-3.9v3.12q.19 0 .58.03.39.02.59.02 1.1 0 3.25-.07t3.1-.07h3.12q1.27 0 1.61.29.13.14.2.29v7.81q0 .52-.2.79-.19.26-.73.29h-24.17l-.73-.64Zm47.41-4.24h-7.52q-.17.56-.33 1.47-.16.92-.29 1.44-.14.53-.45 1.1-.32.58-.97.84-.65.27-1.67.27h-10.55v-.83q1.3-3.88 3.77-11.91 2.48-8.03 3.85-12.16v.05q.83-2.37 2.44-7.42.02-.05.07-.13.22-.36.42-.56l13.18.1q3.37 0 3.71.59v.63q.05.22.54 1.12 2.37 7.26 3.47 10.55v.29q.09.71.44 1.62.34.9.81 1.94.48 1.03.68 1.62l.97 3.52q.86 2.83 2.52 7.56v-.04.48q.07.35.36.93.3.59.37.83 0 .69-.28.88-.28.2-1.09.2h-11.33q-.41-.05-.53-.08-.13-.02-.38-.1-.26-.07-.37-.19-.11-.12-.13-.32l-.93-3.71q-.1-.46-.2-.52-.09-.06-.58-.06Zm-6.35-8.6v-.1.1Zm5.37-3.03q-.14-.68-.43-2.21-.28-1.52-.54-2.66-.27-1.13-.59-2.11v-1.17q-.2-.51-.68-.73v.05q-.59.12-1.18 3.27v1.17q-.04.17-.22.32-.17.14-.17.17-.8 3.56-1.31 5.76 0 .24-.13.85-.12.61-.12.71h6.06q0-.63-.44-2.29v-.54q-.03-.07-.14-.28-.11-.21-.11-.31Zm42.38-15.91h8.35q.3.09.45.84.16.74.19 1.87.02 1.12 0 2.14l-.06 2.1q-.04 1.08-.04 1.35-.05.97-.05 2.73v2.59q0 1.71.05 4.69.05 2.98.05 4.39V-2q-.1.83-1.37.83h-13.67q-.44-.1-1.12-2.05-.47-1.3-1.55-4.25-1.09-2.95-1.87-5.19-.78-2.23-1.42-4.33v-.15.15q-.07 1.61-.14 4.8-.08 3.18-.15 4.77v4.98q0 .73-.17 1.01t-.91.45h-10.05l-1.08-1.07q.12-4.05.2-12.7.07-8.64.19-12.79v-5.27q.25-.88.59-.88v.1q1.66 0 5.21-.1t5.34-.1h4.1q.02 0 .07.03.44.17.49.39l.02.17q.88 2.37 1.79 4.9.9 2.54 2.14 6.14 1.25 3.61 1.74 4.97v-3.61q.49-8.59.49-12.21 0-.39.53-.49.54-.09 1.66-.09Zm13.62 31.78v-29.73q0-1.47.13-1.71.21-.34.7-.34h.59q.39 0 .54.05h1.27q2.46 0 7.45-.13 5-.12 7.49-.12h6.49q.64.07.64.64V-25q-.03.15-.09.26-.06.11-.1.14-.03.04-.23.17-.19.14-.27.21h-11.33v3.03h1.08q1.41 0 4.32-.1t4.47-.1q.68 0 .93.27.24.27.24.76 0 .12-.05.41-.05.3-.05.42v.93q0 .09.03.4.02.3.02.52v.69q0 .53.05 1.07t.05.93v.63q-.12.3-.2.4-.07.09-.24.09v-.05q-.9 0-3.11.13-2.21.12-3.53.12h-3.91v3.12q.2 0 .59.03.39.02.58.02 1.1 0 3.25-.07t3.1-.07h3.13q1.27 0 1.61.29.12.14.19.29v7.81q0 .52-.19.79-.2.26-.73.29h-24.17l-.74-.64Zm28.66.83v-32.61h4.54q2.1 0 6.72-.1 4.61-.1 6.91-.1 1.97 0 3.7.22 1.72.22 3.39.81 1.67.58 2.86 1.49 1.18.9 1.91 2.38.73 1.47.73 3.4 0 2.66-1.24 4.54-1.25 1.88-3.83 3.18 1.02.44 1.78 1.14.76.71 1.16 1.22.4.52.78 1.73.38 1.2.45 1.58.07.38.32 1.87.07.34.1.51.09.98.83 3.58.73 2.6.73 3.99 0 .88-.54.88-1.46 0-4.43.02-2.97.03-4.41.03-.58-.05-1.75-.05h-1.66q-.49-.15-.96-1.51-.46-1.37-.66-3.08l-.53-4.35q-.15-.53-.23-.76-.09-.24-.31-.57-.22-.33-.6-.45t-.96-.12h-1.13v10.4q0 .12-.02.18-.02.07-.05.16-.02.1-.06.14-.04.03-.1.09-.06.07-.14.09-.09.02-.2.05-.11.02-.26.02h-12.84Zm13.82-19.72q.05.05.15.2.1.16.19.26.1.1.2.12.73 0 1.46-.16.74-.15 1.5-.52.77-.37 1.25-1.12.48-.76.48-1.81 0-2.54-4.89-2.54-.49.12-.49.39v.93q0 .71.08 2.12.07 1.42.07 2.13Z" class="wordmark-text-0" data-fill-palette-color="primary"/>
                                </svg>
                              </g>
                            </svg>
                          </g>
                          <g transform="translate(75.544 44.693)">
                            <svg width="244.431" height="9.684" viewBox="0 0 244.431 9.684">
                              <g>
                                <svg width="244.431" height="9.684" data-palette-color="#ffc36a" viewBox="-0.78 -35.79 919.3 36.42">
                                  <path fill="#ffc36a" d="M22.51-34.96 32.03-2.1 19.92-.54l-1.46-5.51h-5.57L11.67-.54-.78-1.76l9.72-32.52 13.57-.68Zm-8.59 21.43h3.66l-1.86-8.49-1.8 8.49Zm46.84-20.85q-1.09 8.6-1.88 17.11-.78 8.51-1.49 17.12l-10 .74.43-3.76q-.48.56-1.13.97-.65.42-1.38.67-.73.26-1.51.37-.78.11-1.49.09-1.66-.03-3.13-.65-1.46-.62-2.68-1.66-1.22-1.04-2.2-2.42-.98-1.38-1.65-2.9-.67-1.53-1.02-3.12-.36-1.58-.36-3.07 0-2.2.09-4.56.08-2.35.3-4.72.22-2.37.58-4.69.35-2.32.89-4.44 2.98.15 5.98.27 3 .12 5.98.07-.56 2.13-1.11 4.26-.55 2.14-.99 4.3-.44 2.16-.71 4.33-.27 2.17-.27 4.4 0 .51.05 1.46t.26 1.88q.21.93.63 1.62.43.7 1.21.7.93 0 1.66-.79.74-.8 1.3-2.14t.96-3.1q.4-1.76.68-3.67.29-1.92.46-3.87.17-1.96.25-3.68.09-1.72.12-3.09.04-1.36.04-2.12 0-.49-.02-.95-.03-.47-.08-.96 1.59.05 3.15.08 1.57.02 3.15.02 1.22 0 2.46-.01 1.23-.01 2.47-.09Zm.71 0 26.61-.04-.24 10.35-7.28.29-.88 22.66-10.3.53-.93-22.65-7.27.39.29-11.53Zm57.71 15.68q0 2.22-.51 4.28-.51 2.07-1.48 3.87-.96 1.81-2.34 3.31t-3.1 2.58q-1.72 1.07-3.75 1.67-2.03.6-4.3.6-2.19 0-4.18-.56-1.99-.57-3.73-1.58-1.73-1.01-3.13-2.44-1.41-1.43-2.4-3.17-.99-1.75-1.53-3.75-.55-2-.55-4.18 0-2.12.51-4.16t1.48-3.84q.96-1.81 2.33-3.32 1.36-1.52 3.06-2.62t3.68-1.71q1.97-.61 4.17-.61 3.54 0 6.46 1.1t4.98 3.14q2.06 2.04 3.2 4.93 1.13 2.89 1.13 6.46Zm-10.84.63q0-1.05-.3-2.03-.31-.99-.89-1.76-.59-.77-1.46-1.25-.86-.47-1.99-.47-1.14 0-2.05.41-.9.42-1.55 1.14-.64.72-.99 1.68-.34.97-.34 2.04 0 1.02.29 2.05.3 1.03.88 1.86.59.83 1.46 1.34.86.51 2.01.51t2.06-.45q.92-.45 1.55-1.22.64-.77.98-1.77.34-1 .34-2.08Zm54.78 1.52q0 3.49-.21 6.96-.22 3.46-.52 6.95l-12.55.59q.57-4.25 1.02-8.51.45-4.26.45-8.53 0-.27-.03-.94-.02-.67-.08-1.53-.06-.85-.17-1.77-.11-.91-.3-1.68-.18-.77-.45-1.26t-.63-.49q-.86 0-1.34.65-.49.65-.72 1.55-.24.9-.29 1.84-.04.94-.04 1.53 0 1.02.04 2.05.05 1.02.05 2.1 0 3.78-.18 7.54-.18 3.76-.45 7.55l-11.57.44q.56-4.25.99-8.49.42-4.23.42-8.51 0-.26-.02-.97-.03-.71-.09-1.59-.06-.88-.18-1.83-.12-.95-.31-1.75-.18-.79-.45-1.3t-.66-.51q-.61 0-1.02.47-.42.48-.67 1.23-.26.76-.39 1.68-.14.91-.2 1.79t-.07 1.62q-.01.75-.04 1.12l-.54 17.82h-12.3q.39-4.13.79-8.28.41-4.15.71-8.29.31-4.14.5-8.29.2-4.15.2-8.3l11.62-.49-.05 2.84q.54-.69 1.22-1.38.68-.7 1.45-1.25.77-.55 1.64-.89.86-.34 1.79-.34 1.2 0 2.15.18.95.19 1.72.63.77.43 1.36 1.2.58.77 1.02 1.94.78-.85 1.58-1.58.79-.73 1.67-1.26.88-.52 1.9-.82 1.03-.29 2.27-.29 2.37 0 4.03.92 1.66.91 2.77 2.42 1.11 1.52 1.74 3.47.62 1.95.94 4.05.31 2.1.4 4.18.08 2.07.08 3.81Zm23.49-18.41 9.52 32.86-12.11 1.56-1.46-5.51h-5.57l-1.22 5.51-12.45-1.22 9.71-32.52 13.58-.68Zm-8.6 21.43h3.67l-1.86-8.49-1.81 8.49Zm14.87-20.85 26.61-.04-.24 10.35-7.28.29-.88 22.66-10.3.53-.93-22.65-7.27.39.29-11.53Zm27.76.69 12.99-.69-1.71 33.26-10.31.53-.97-33.1Zm38.25.34-.88 10.3q-.71-.19-1.39-.27-.68-.07-1.39-.07-1.73 0-3.31.44-1.57.44-2.78 1.34-1.21.91-1.93 2.29t-.72 3.26q0 1.36.4 2.38.4 1.01 1.15 1.68.74.67 1.81 1.01 1.06.35 2.35.35.91 0 1.86-.19.95-.18 1.9-.5t1.83-.73q.88-.42 1.64-.88l-.39 11.48q-.95.48-2.05.86-1.1.38-2.26.66-1.16.28-2.32.43-1.16.14-2.21.14-3.47 0-6.31-1.29-2.85-1.29-4.88-3.53-2.04-2.23-3.17-5.19-1.12-2.95-1.12-6.29 0-4.01 1.14-7.47 1.13-3.47 3.34-6.02 2.21-2.55 5.47-4.01 3.26-1.45 7.48-1.45 1.69 0 3.42.27t3.32 1Zm54.78 16.8q0 3.49-.22 6.96-.22 3.46-.51 6.95l-12.55.59q.56-4.25 1.01-8.51.45-4.26.45-8.53 0-.27-.02-.94-.02-.67-.08-1.53-.07-.85-.18-1.77-.11-.91-.29-1.68-.18-.77-.45-1.26t-.64-.49q-.85 0-1.34.65-.49.65-.72 1.55-.23.9-.28 1.84-.05.94-.05 1.53 0 1.02.05 2.05.05 1.02.05 2.1 0 3.78-.18 7.54-.19 3.76-.45 7.55l-11.58.44q.56-4.25.99-8.49.43-4.23.43-8.51 0-.26-.03-.97-.02-.71-.08-1.59-.06-.88-.18-1.83-.13-.95-.31-1.75-.18-.79-.45-1.3t-.66-.51q-.61 0-1.03.47-.41.48-.67 1.23-.25.76-.39 1.68-.13.91-.19 1.79t-.08 1.62q-.01.75-.03 1.12l-.54 17.82h-12.3q.39-4.13.79-8.28.4-4.15.71-8.29.3-4.14.5-8.29.19-4.15.19-8.3l11.62-.49-.05 2.84q.54-.69 1.23-1.38.68-.7 1.45-1.25.77-.55 1.63-.89.87-.34 1.8-.34 1.19 0 2.15.18.95.19 1.72.63.77.43 1.35 1.2.59.77 1.03 1.94.78-.85 1.57-1.58.8-.73 1.68-1.26.87-.52 1.9-.82 1.03-.29 2.27-.29 2.37 0 4.03.92 1.66.91 2.77 2.42 1.11 1.52 1.73 3.47.63 1.95.94 4.05.32 2.1.41 4.18.08 2.07.08 3.81Zm1.98-17.14 12.98-.69-1.7 33.26-10.31.53-.97-33.1Zm45.26 21.34q0 2.76-.06 5.45-.06 2.7-.19 5.44l-14.06-.25q.73-4.32 1.27-8.63.54-4.31.54-8.7 0-.32-.03-1.03-.02-.71-.09-1.6-.08-.89-.21-1.83-.14-.94-.37-1.72-.23-.78-.56-1.28-.33-.5-.79-.5-.83 0-1.41.49-.57.48-.95 1.25t-.6 1.72q-.22.96-.33 1.91-.11.95-.14 1.79-.04.85-.04 1.38-.12 4.32-.2 8.58-.07 4.26-.19 8.61l-12.45.54q.49-8.62.94-17.14.45-8.52.72-17.14l11.52-.59-.1 3.91q.69-.83 1.48-1.56.79-.73 1.7-1.26.9-.52 1.91-.83 1.02-.3 2.14-.3 2.08 0 3.64.68t2.68 1.85q1.13 1.18 1.88 2.78.76 1.59 1.22 3.4.47 1.81.71 3.77.25 1.97.33 3.87.09 1.91.09 3.69v3.25Zm29.54-7.38q0 2.13-.3 4.25-4.17.27-8.3.87-4.12.6-8.25 1.18.64 1.76 1.99 2.81 1.36 1.05 3.23 1.05.98 0 2.14-.37 1.16-.36 2.31-.91 1.15-.55 2.2-1.19 1.05-.63 1.8-1.14L386.1-2.1q-.95.73-2.06 1.25-1.11.51-2.31.83-1.2.31-2.42.46-1.22.15-2.39.15-2.42 0-4.42-.66t-3.62-1.85q-1.63-1.18-2.85-2.79-1.22-1.61-2.02-3.52-.81-1.9-1.23-4.03-.41-2.12-.41-4.29 0-2.27.41-4.54.42-2.27 1.26-4.37.84-2.1 2.13-3.9 1.28-1.79 2.99-3.14 1.71-1.34 3.87-2.09 2.16-.76 4.77-.76 2.17 0 3.97.6 1.79.59 3.2 1.66 1.4 1.06 2.44 2.52 1.03 1.47 1.71 3.21.67 1.75 1 3.69.33 1.94.33 3.94Zm-9.77-.73V-21q0-.68-.15-1.4-.14-.72-.47-1.31-.33-.58-.87-.96t-1.34-.38q-.98 0-1.72.53-.75.52-1.28 1.31-.54.8-.88 1.73-.35.92-.52 1.7l7.23-.68Zm34.64-12.89-.88 10.3q-.71-.19-1.39-.27-.68-.07-1.39-.07-1.73 0-3.31.44-1.57.44-2.78 1.34-1.21.91-1.93 2.29t-.72 3.26q0 1.36.4 2.38.4 1.01 1.15 1.68.74.67 1.81 1.01 1.06.35 2.35.35.91 0 1.86-.19.95-.18 1.9-.5t1.83-.73q.88-.42 1.64-.88l-.39 11.48q-.95.48-2.05.86-1.1.38-2.26.66-1.16.28-2.32.43-1.16.14-2.21.14-3.47 0-6.31-1.29-2.85-1.29-4.88-3.53-2.04-2.23-3.17-5.19-1.12-2.95-1.12-6.29 0-4.01 1.14-7.47 1.13-3.47 3.34-6.02 2.21-2.55 5.47-4.01 3.26-1.45 7.48-1.45 1.69 0 3.42.27t3.32 1Zm30.96 9.81q0 1.91-.33 3.46t-1.04 2.84q-.71 1.3-1.83 2.4-1.13 1.09-2.71 2.1l5.81 10.35-10.99 2.15-3.76-10.4-3.03.09-.43 10.16h-10.5q.12-5.57.23-11.08.11-5.52.26-11.09.04-2.81.09-5.57.05-2.75.2-5.56 1.71-.64 3.37-1.05 1.66-.42 3.33-.65 1.67-.23 3.39-.32 1.73-.08 3.53-.08 2.78 0 5.38.77 2.61.77 4.61 2.31 2 1.53 3.21 3.83 1.21 2.29 1.21 5.34Zm-10.94.79q0-1.03-.28-1.88-.28-.86-.83-1.48-.55-.62-1.37-.98-.82-.35-1.92-.35-.48 0-.95.06-.46.06-.9.18l-.39 9.08h.58q1.05 0 2.14-.26 1.09-.27 1.95-.83.87-.57 1.42-1.44.55-.88.55-2.1Zm33.88-12.21 9.52 32.86-12.11 1.56-1.46-5.51h-5.57l-1.22 5.51-12.45-1.22 9.72-32.52 13.57-.68Zm-8.59 21.43h3.66l-1.85-8.49-1.81 8.49Zm19.21-21.19h22.51q-.15 2.3-.27 4.54-.12 2.25-.32 4.55l-10.35.53v3.08h8.99l-.49 7.57-8.55.24.05 13.48-12.35.24.78-34.23Zm23.04.34 26.62-.04-.25 10.35-7.27.29-.88 22.66-10.31.53-.92-22.65-7.28.39.29-11.53Zm66.38 10.84q0 1.91-.33 3.46t-1.04 2.84q-.7 1.3-1.83 2.4-1.12 1.09-2.71 2.1l5.81 10.35-10.98 2.15-3.76-10.4-3.03.09-.44 10.16h-10.5q.12-5.57.23-11.08.11-5.52.26-11.09l.1-5.57q.05-2.75.19-5.56 1.71-.64 3.37-1.05 1.66-.42 3.34-.65 1.67-.23 3.39-.32 1.72-.08 3.53-.08 2.78 0 5.38.77t4.6 2.31q2 1.53 3.21 3.83 1.21 2.29 1.21 5.34Zm-10.94.79q0-1.03-.28-1.88-.28-.86-.83-1.48-.55-.62-1.36-.98-.82-.35-1.92-.35-.49 0-.95.06-.47.06-.91.18l-.39 9.08h.59q1.05 0 2.14-.26 1.08-.27 1.95-.83.87-.57 1.41-1.44.55-.88.55-2.1Zm39.63 3.02q0 2.13-.3 4.25-4.17.27-8.3.87-4.12.6-8.25 1.18.63 1.76 1.99 2.81 1.35 1.05 3.23 1.05.98 0 2.14-.37 1.16-.36 2.31-.91 1.15-.55 2.2-1.19 1.04-.63 1.8-1.14L593.6-2.1q-.95.73-2.06 1.25-1.11.51-2.31.83-1.2.31-2.42.46-1.22.15-2.39.15-2.42 0-4.42-.66t-3.62-1.85q-1.63-1.18-2.85-2.79-1.22-1.61-2.02-3.52-.81-1.9-1.23-4.03-.41-2.12-.41-4.29 0-2.27.41-4.54.42-2.27 1.26-4.37.84-2.1 2.13-3.9 1.28-1.79 2.99-3.14 1.71-1.34 3.87-2.09 2.16-.76 4.77-.76 2.17 0 3.97.6 1.79.59 3.19 1.66 1.41 1.06 2.45 2.52 1.03 1.47 1.7 3.21.68 1.75 1.01 3.69.33 1.94.33 3.94Zm-9.77-.73V-21q0-.68-.15-1.4-.14-.72-.47-1.31-.33-.58-.87-.96t-1.34-.38q-.98 0-1.72.53-.75.52-1.29 1.31-.53.8-.87 1.73-.35.92-.52 1.7l7.23-.68Zm40.87-.93.29 15.92q-1.15 1.44-2.83 2.52-1.69 1.07-3.62 1.78-1.92.71-3.95 1.06-2.03.35-3.86.35-3.54 0-6.52-1.19-2.98-1.2-5.14-3.33-2.16-2.14-3.38-5.1-1.22-2.95-1.22-6.44 0-2.66.61-5.18.61-2.51 1.75-4.71 1.13-2.2 2.77-4.03 1.63-1.83 3.71-3.15 2.08-1.31 4.55-2.03 2.48-.72 5.26-.72 1.05 0 2.25.08 1.2.09 2.38.29 1.18.21 2.31.58 1.12.36 2.05.9l-.68 9.33q-1.37-.52-2.82-.7-1.46-.18-2.85-.18-1.95 0-3.65.52-1.7.53-2.95 1.55-1.26 1.03-1.99 2.57-.74 1.53-.74 3.56 0 1.27.35 2.45.34 1.19 1.03 2.1.7.92 1.74 1.48 1.04.56 2.4.56.93 0 1.92-.24.99-.25 1.7-.83l.09-1.91-5.86-.09.3-7.33q3.63-.12 7.27-.2 3.64-.09 7.33-.24Zm1.9-12.3 12.99-.69-1.71 33.26-10.31.53-.97-33.1Zm44.89 14.99q0 2.22-.51 4.28-.51 2.07-1.48 3.87-.96 1.81-2.34 3.31t-3.1 2.58q-1.72 1.07-3.75 1.67-2.02.6-4.3.6-2.19 0-4.18-.56-1.99-.57-3.73-1.58-1.73-1.01-3.13-2.44-1.41-1.43-2.4-3.17-.98-1.75-1.53-3.75t-.55-4.18q0-2.12.51-4.16t1.48-3.84q.96-1.81 2.33-3.32 1.37-1.52 3.06-2.62 1.7-1.1 3.68-1.71 1.97-.61 4.17-.61 3.54 0 6.46 1.1t4.98 3.14q2.06 2.04 3.2 4.93 1.13 2.89 1.13 6.46Zm-10.84.63q0-1.05-.3-2.03-.31-.99-.89-1.76-.59-.77-1.46-1.25-.86-.47-1.99-.47-1.14 0-2.05.41-.9.42-1.55 1.14-.64.72-.99 1.68-.34.97-.34 2.04 0 1.02.3 2.05.29 1.03.88 1.86.58.83 1.45 1.34.86.51 2.01.51t2.06-.45q.92-.45 1.56-1.22.63-.77.97-1.77.34-1 .34-2.08Zm42.58 5.72q0 2.76-.06 5.45-.06 2.7-.19 5.44l-14.06-.25q.73-4.32 1.27-8.63.54-4.31.54-8.7 0-.32-.03-1.03-.02-.71-.09-1.6-.08-.89-.21-1.83-.13-.94-.37-1.72-.23-.78-.56-1.28-.33-.5-.79-.5-.83 0-1.41.49-.57.48-.95 1.25t-.6 1.72q-.22.96-.33 1.91-.11.95-.14 1.79-.04.85-.04 1.38-.12 4.32-.19 8.58-.08 4.26-.2 8.61l-12.45.54q.49-8.62.94-17.14.45-8.52.72-17.14l11.52-.59-.09 3.91q.68-.83 1.47-1.56.8-.73 1.7-1.26.9-.52 1.92-.83 1.01-.3 2.13-.3 2.08 0 3.64.68t2.69 1.85q1.12 1.18 1.88 2.78.75 1.59 1.22 3.4.46 1.81.7 3.77.25 1.97.33 3.87.09 1.91.09 3.69v3.25Zm40.5-10.16q0 2.37-.71 4.2t-1.94 3.21q-1.23 1.38-2.89 2.32-1.67.94-3.56 1.54-1.89.6-3.92.88-2.02.28-3.98.3V.34h-11.37q0-2.78.01-5.42l.02-5.23q.02-2.61.03-5.24.01-2.64.04-5.45.04-2.97.02-5.95t.12-6.01q3.13-.93 6.25-1.39 3.13-.46 6.45-.46 1.88 0 3.76.3 1.88.31 3.6.97 1.72.65 3.2 1.64 1.47.99 2.55 2.36 1.07 1.37 1.69 3.12.63 1.76.63 3.91Zm-10.84.83q0-1.59-.97-2.48-.96-.89-2.5-.89-.51 0-1.06.09-.55.08-1.04.2l-.29 7.13q.34.05.66.05h.66q.88 0 1.69-.29.82-.29 1.46-.84.63-.55 1.01-1.3.38-.74.38-1.67Zm41.33-12.7q-1.1 8.6-1.88 17.11-.78 8.51-1.49 17.12l-10.01.74.44-3.76q-.49.56-1.14.97-.64.42-1.38.67-.73.26-1.51.37-.78.11-1.49.09-1.66-.03-3.12-.65-1.47-.62-2.69-1.66t-2.2-2.42q-.97-1.38-1.65-2.9-.67-1.53-1.02-3.12-.35-1.58-.35-3.07 0-2.2.08-4.56.09-2.35.31-4.72.22-2.37.57-4.69.35-2.32.89-4.44 2.98.15 5.98.27 3.01.12 5.98.07-.56 2.13-1.11 4.26-.55 2.14-.99 4.3-.44 2.16-.7 4.33-.27 2.17-.27 4.4 0 .51.05 1.46t.25 1.88q.21.93.64 1.62.42.7 1.21.7.92 0 1.66-.79.73-.8 1.29-2.14t.96-3.1q.41-1.76.69-3.67.28-1.92.45-3.87.17-1.96.26-3.68.08-1.72.12-3.09.03-1.36.03-2.12 0-.49-.02-.95-.02-.47-.07-.96 1.58.05 3.15.08 1.56.02 3.15.02 1.22 0 2.45-.01 1.23-.01 2.48-.09Zm30.07 10.84q0 1.91-.33 3.46t-1.03 2.84q-.71 1.3-1.83 2.4-1.13 1.09-2.71 2.1l5.81 10.35-10.99 2.15-3.76-10.4-3.03.09-.44 10.16h-10.5q.13-5.57.24-11.08.11-5.52.25-11.09l.1-5.57q.05-2.75.2-5.56 1.7-.64 3.37-1.05 1.66-.42 3.33-.65 1.67-.23 3.39-.32 1.72-.08 3.53-.08 2.78 0 5.38.77t4.6 2.31q2.01 1.53 3.21 3.83 1.21 2.29 1.21 5.34Zm-10.93.79q0-1.03-.28-1.88-.29-.86-.84-1.48-.54-.62-1.36-.98-.82-.35-1.92-.35-.49 0-.95.06-.46.06-.9.18l-.39 9.08h.58q1.05 0 2.14-.26 1.08-.27 1.95-.83.87-.57 1.42-1.44.55-.88.55-2.1Zm41.84 1.36.29 15.92q-1.15 1.44-2.83 2.52-1.68 1.07-3.61 1.78t-3.96 1.06q-2.02.35-3.86.35-3.54 0-6.51-1.19-2.98-1.2-5.14-3.33-2.16-2.14-3.38-5.1-1.23-2.95-1.23-6.44 0-2.66.61-5.18.62-2.51 1.75-4.71 1.14-2.2 2.77-4.03 1.64-1.83 3.71-3.15 2.08-1.31 4.56-2.03 2.47-.72 5.26-.72 1.05 0 2.24.08 1.2.09 2.38.29 1.19.21 2.31.58 1.12.36 2.05.9l-.68 9.33q-1.37-.52-2.82-.7-1.45-.18-2.85-.18-1.95 0-3.65.52-1.69.53-2.95 1.55-1.26 1.03-1.99 2.57-.73 1.53-.73 3.56 0 1.27.34 2.45.34 1.19 1.04 2.1.69.92 1.73 1.48 1.04.56 2.4.56.93 0 1.92-.24.99-.25 1.7-.83l.1-1.91-5.86-.09.29-7.33q3.64-.12 7.27-.2 3.64-.09 7.33-.24Zm1.9-12.3 12.99-.69-1.71 33.26-10.3.53-.98-33.1Zm45.26 21.34q0 2.76-.06 5.45-.06 2.7-.18 5.44l-14.06-.25q.73-4.32 1.26-8.63.54-4.31.54-8.7 0-.32-.02-1.03-.03-.71-.1-1.6-.07-.89-.21-1.83-.13-.94-.36-1.72-.24-.78-.57-1.28-.32-.5-.79-.5-.83 0-1.4.49-.58.48-.95 1.25-.38.77-.6 1.72-.22.96-.33 1.91-.11.95-.15 1.79-.04.85-.04 1.38-.12 4.32-.19 8.58t-.2 8.61l-12.45.54q.49-8.62.94-17.14.45-8.52.72-17.14l11.53-.59-.1 3.91q.68-.83 1.48-1.56.79-.73 1.69-1.26.91-.52 1.92-.83 1.01-.3 2.14-.3 2.07 0 3.63.68 1.57.68 2.69 1.85 1.12 1.18 1.88 2.78.76 1.59 1.22 3.4.46 1.81.71 3.77.24 1.97.33 3.87.08 1.91.08 3.69v3.25Zm31.52-9.04.29 15.92q-1.15 1.44-2.83 2.52-1.69 1.07-3.61 1.78-1.93.71-3.96 1.06-2.03.35-3.86.35-3.54 0-6.52-1.19-2.97-1.2-5.13-3.33-2.17-2.14-3.39-5.1-1.22-2.95-1.22-6.44 0-2.66.61-5.18.61-2.51 1.75-4.71 1.13-2.2 2.77-4.03 1.64-1.83 3.71-3.15 2.08-1.31 4.55-2.03 2.48-.72 5.27-.72 1.05 0 2.24.08 1.2.09 2.38.29 1.19.21 2.31.58 1.12.36 2.05.9l-.68 9.33q-1.37-.52-2.82-.7-1.46-.18-2.85-.18-1.95 0-3.65.52-1.69.53-2.95 1.55-1.26 1.03-1.99 2.57-.73 1.53-.73 3.56 0 1.27.34 2.45.34 1.19 1.04 2.1.69.92 1.73 1.48 1.04.56 2.4.56.93 0 1.92-.24.99-.25 1.7-.83l.09-1.91-5.85-.09.29-7.33q3.64-.12 7.27-.2 3.64-.09 7.33-.24Z" class="slogan-text-1" data-fill-palette-color="secondary"/>
                                </svg>
                              </g>
                            </svg>
                          </g>
                        </svg>
                      </g>
                    </svg>
                  </g>
                  <g transform="translate(161.074)">
                    <svg width="73.371" height="73.647" viewBox="0 0 73.371 73.647">
                      <g>
                        <svg xmlns="http://www.w3.org/2000/svg" xmlns:xlink="http://www.w3.org/1999/xlink" xml:space="preserve" width="57.371" height="73.647" x="8" class="icon-icon-0" data-fill-palette-color="accent" style="enable-background:new 0 0 97.5 99.8" viewBox="14.55 4.644 70.388 90.356">
                          <path fill="#ffc36a" d="M83.5 61.5c-1.4-1.7-4.9-1.4-4.9-1.4.5-.7.8-2 .6-3.2v-.1c1-.3 3.4-1.5 3.9-3 .6-1.6-.2-2.7-.2-2.7 2.7-2.4 2.7-6.6.1-10.3-3.2-4.6-8.3-3.4-9.4-2.9-.5-.7-1.7-1.6-3.8-.8-1.9.9-3.1 2.9-3.1 2.9s-1.9-1.1-3.7-.4c0 0 1-3 .1-4.5-1.5-2.5-4-2-4-2.1L58 26.7s-2.1-4.6-2.5-12.3c-.2-3.1 3.5-2.8 4-2.8 0 0 .1 0 .1-.1l.1-5.2s-3.3-1.4-7.6-1.6c-8.2-.6-26.3 3.8-26.3 3.8s-.1 0-.1.1v3.6s0 .1.1.1l7.9 1.7s.1 0 .1.1v17.2l5.4-1s-1.3-11.9 1.4-15.7c.7-.9 2.5-1.7 3 .4 1.1 4.1-2 11.7-2 11.7l-.7 7.5c-1.9 1.8-9.6 9.7-9.7 20.3v21.1L16 86.7c-1.5 1.1-1.9 3.1-.9 4.7 1.1 1.8 3.7 2.2 5.4.9L31 84.4s.1 0 .1.1v8c.7.2 9.9 2.5 18.7 2.5 8.8 0 17.9-2.3 18.7-2.5v-.1l-.1-14.5s0-.1.1-.1c1.5-.3 2.3-.8 2.7-1.2h.1c1.3.6 5.7 2.7 8.2.9.8-.6.9-2.1.9-2.1.8-.2 2.6-1 3.5-2.7 1.3-2.3-.3-5.1-.2-5.1.4-.8 1.4-4.1-.2-6.1zM20.3 90.2c-.2.3-.4.6-.8.8-.5.3-1.5.6-2.5-.2-.7-.6-1.1-2.3-.1-3.1 1.6-1.3 2.9-.1 2.9-.1 1.1 1.1.8 2.1.5 2.6zm23.7-77c-1.2-1-2.3-1.2-3.4-.3-4.4 3.5-2.6 16.8-2.7 16.6l-3.1.5V8s10.7-2.4 17.4-2.2c3.4.2 5.6 1 6.4 1.2v3.7c-.1 0-4.2-.2-4.2 3.4 0 .1 0 3.9 1.9 12 0 0 0 .1-.1.1h-13l-.1-.1c.1.1 3-11.2.9-12.9zM32.1 62c0-2.7 0-5.3.1-7.4.2-10.7 8.3-18.6 9.6-19.8h4s.1 0 .1.1c-.9 2.1-.6 5.6-.4 6.9v.1c-1.1.7-4.2 3.5-2.3 9.5 1.5 4.6 0 9.2-.7 11.1-.4 1.2-5.7 8.4-6.9 9.3l-3.4 2.6s-.1 0-.1-.1V62zm35.2 29.5c0 .1 0 .1 0 0-2 .5-8.8 2.4-17.5 2.4s-15.7-1.8-17.7-2.3V83.6l8.5-6.6c.9-.7 6.1-2 9.6-2.9 3.6-.9 8-.7 10.8 1.5 2.2 1.5 4.6 2.4 6.1 2.4 0 0 .1 0 .1.1l.1 13.4zM45.8 68.1 44.2 66l4.2-3.4 6-1c.1 0 .1.1.1.1l-8.7 6.4zm6.7-.3-4.6 3-1.6-2 8.5-6.3-2.3 5.3zm30.7 4.5c-1 1.7-3.2 2.3-3.3 2.3l-.4.1v.4c.1.8-.3 1.4-1.1 1.9-2.4 1.2-6.8-1.3-7.2-1.5h-.1c-.4.3-4.4 3.3-9-.3-1.3-1.1-3.7-2-5-2.2-4.2-.9-7.6.2-7.6.2l-1.2-1.6 4.7-3h.1l6.8 2.6s.4.2.6-.2c.2-.5-.3-.7-.3-.7l-6-2.3 2-.9 6.9 2.7c.2.1.6.1.7-.2.1-.2 0-.5-.3-.6l-6.2-2.4c1.7-.6 2.7-.8 2.7-.8l6.5 2.2s.4.2.5-.2c.1-.4-.2-.5-.2-.5l-5.4-1.8c2.5-.6 5.1-.3 6.5-.1 1.5.2 3.5.8 5.9 1.7 1.9.7 3.3 1.3 3.3 1.3s.5.2.7-.1c.2-.5-.3-.7-.3-.7s-3.7-1.6-8.6-2.9c-2.1-.6-4.8-.5-6.4-.3-3 .4-5.6 1.3-5.6 1.3l3-5.4c.1-.2.1-.5-.1-.6-.2-.1-.5-.1-.6.1l-3.4 6.3-2.1 1.1 2.3-5.7c.1-.2 6.4-4.6 6.7-4.8h7c.2 0 .5-.2.5-.4s-.2-.5-.4-.5l-6.3.2 1.8-1.4 7.6.3c.3 0 .5-.2.5-.4 0-.3-.2-.5-.4-.5l-6.9-.1 9.3-6.8s.4-.2.2-.5c-.2-.4-.6-.1-.6-.1l-9 6.6 1.3-6.2s.2-.4-.2-.5c-.4-.1-.5.3-.5.3l-1.6 7-2.1 1.7 1.5-6.5c.1-.2-.1-.5-.4-.5-.2-.1-.5.1-.5.4L62 56c-.4.3-6.4 4.6-6.7 4.8-.2 0-6.3.9-6.3.9l1.5-1.7 7.1-2s.4-.1.3-.5c-.1-.3-.5-.3-.5-.3l-6.1 1.6c.2-.2 1.8-2.8 1.8-2.9 3.2-5.1 4.1-11.9 2-17.7 0 0-.1-.4-.5-.3 0 0-.3.2-.2.5 3 8.8-1.5 16-1.5 16l-1.1-6s-.1-.4-.5-.4c-.5 0-.4.5-.4.5l1.3 7.2c-.4.7-.8 1.4-1.3 2.1l-.6-6.6s-.1-.4-.5-.4c-.3 0-.4.2-.4.5L50 59l-1.8 2.2-.1-7c0-.2-.2-.5-.5-.5s-.4.2-.4.5l.2 8-3.8 3-.8-1v-.1c.2-.4 2.1-4.9 2.1-8.5 0-1.5-.2-3.1-.8-4.7-2-6 1.9-8.4 2.4-8.7v-.1c-.1-.4-.5-3.1-.3-4.9.2-1.9 1.2-3.6 2.8-2.9 3.5-5.6 8.2.3 8.2.3s2.4-2.1 4.6 0c1.8 2.6-.5 6.8-.5 6.8l2-1c1.9-1 3.5.7 3.5.7s2.1-3.4 4-3.5c1.9-.1 2.4 1.3 2.4 1.3s5.7-2.9 9.1 2.3c4 5.9-.3 9.7-.3 9.7l.2.3c.5.8.6 1.4.3 2.1-.9 2.1-4.4 2.9-4.4 2.9 1.1 2.4-.9 4.8-.9 4.8s4.6-.9 5.9 1.1c1.3 2-.3 5.4-.3 5.4-.1.1 1.5 2.8.4 4.8z" data-fill-palette-color="accent"/>
                        </svg>
                      </g>
                    </svg>
                  </g>
                  <g fill="#ffc36a">
                    <path d="M234.446 69.386h124.407v3.261H234.446zM36.668 69.386h124.407v3.261H36.668zM234.446 62.865h124.407v3.261H234.446zM36.668 62.865h124.407v3.261H36.668z" data-fill-palette-color="accent"/>
                  </g>
                </svg>
              </g>
            </svg>
          </g>
        </svg>
      </g>
    </svg>
    <path fill="none" d="M0 0h395.52v247.2H0z" visibility="hidden"/>
  </g>
</svg>
